<?xml version="1.0" encoding="utf-8"?>
<!-- Generator: Adobe Illustrator 17.1.0, SVG Export Plug-In . SVG Version: 6.00 Build 0)  -->
<!DOCTYPE svg PUBLIC "-//W3C//DTD SVG 1.1//EN" "http://www.w3.org/Graphics/SVG/1.1/DTD/svg11.dtd">
<svg version="1.1" id="Layer_1" xmlns="http://www.w3.org/2000/svg" xmlns:xlink="http://www.w3.org/1999/xlink" x="0px" y="0px"
	 viewBox="0 0 792 1224" enable-background="new 0 0 792 1224" xml:space="preserve">
<g>
	<g>
		<path fill="#414042" d="M404,614.3c-1.5-1.5-3.7-2.5-6-2.5c-2.4,0-4.5,1-6,2.5c-1.5,1.5-2.5,3.7-2.5,6c0,2.4,1,4.5,2.5,6
			c1.5,1.5,3.7,2.5,6,2.5v4.3l6-6.4c1.5-1.6,2.5-3.9,2.5-6.4C406.5,618,405.5,615.8,404,614.3z M402.9,625.8l-3.6,3.8v-0.7v-1.4
			h-1.4c-1.9,0-3.7-0.7-5-2.1c-1.3-1.3-2.1-3.1-2.1-5c0-1.9,0.7-3.7,2.1-5c1.3-1.3,3.1-2.1,5-2.1s3.7,0.7,5,2.1
			c1.3,1.3,2.1,3.1,2.1,5C405,622.4,404.3,624.3,402.9,625.8z"/>
		<circle fill="#414042" cx="397.9" cy="620.3" r="1.1"/>
		<circle fill="#414042" cx="401.5" cy="620.3" r="1.1"/>
		<circle fill="#414042" cx="394.4" cy="620.3" r="1.1"/>
	</g>
</g>
</svg>
