<?xml version="1.0" encoding="UTF-8" standalone="no"?>
<!-- Generator: Adobe Illustrator 17.1.0, SVG Export Plug-In . SVG Version: 6.00 Build 0)  -->

<svg
   xmlns:dc="http://purl.org/dc/elements/1.1/"
   xmlns:cc="http://creativecommons.org/ns#"
   xmlns:rdf="http://www.w3.org/1999/02/22-rdf-syntax-ns#"
   xmlns:svg="http://www.w3.org/2000/svg"
   xmlns="http://www.w3.org/2000/svg"
   xmlns:sodipodi="http://sodipodi.sourceforge.net/DTD/sodipodi-0.dtd"
   xmlns:inkscape="http://www.inkscape.org/namespaces/inkscape"
   version="1.1"
   id="Layer_1"
   x="0px"
   y="0px"
   viewBox="0 0 21.3 21.3"
   enable-background="new 0 0 792 1224"
   xml:space="preserve"
   inkscape:version="0.48.5 r10040"
   width="100%"
   height="100%"
   sodipodi:docname="docs-blogs.svg"><metadata
   id="metadata3183"><rdf:RDF><cc:Work
       rdf:about=""><dc:format>image/svg+xml</dc:format><dc:type
         rdf:resource="http://purl.org/dc/dcmitype/StillImage" /></cc:Work></rdf:RDF></metadata><defs
   id="defs3181" /><sodipodi:namedview
   pagecolor="#ffffff"
   bordercolor="#666666"
   borderopacity="1"
   objecttolerance="10"
   gridtolerance="10"
   guidetolerance="10"
   inkscape:pageopacity="0"
   inkscape:pageshadow="2"
   inkscape:window-width="845"
   inkscape:window-height="660"
   id="namedview3179"
   showgrid="false"
   fit-margin-top="0"
   fit-margin-left="0"
   fit-margin-right="0"
   fit-margin-bottom="0"
   inkscape:zoom="3.0849673"
   inkscape:cx="15.092885"
   inkscape:cy="-6.8716211"
   inkscape:window-x="0"
   inkscape:window-y="0"
   inkscape:window-maximized="0"
   inkscape:current-layer="g3167" />
<g
   id="g3167"
   transform="translate(-387.23093,-611.47585)">
	<g
   id="g3169"
   style="fill:#86898c;fill-opacity:1">
		<path
   d="m 404,614.3 c -1.5,-1.5 -3.7,-2.5 -6,-2.5 -2.4,0 -4.5,1 -6,2.5 -1.5,1.5 -2.5,3.7 -2.5,6 0,2.4 1,4.5 2.5,6 1.5,1.5 3.7,2.5 6,2.5 v 4.3 l 6,-6.4 c 1.5,-1.6 2.5,-3.9 2.5,-6.4 0,-2.3 -1,-4.5 -2.5,-6 z m -1.1,11.5 -3.6,3.8 v -0.7 -1.4 h -1.4 c -1.9,0 -3.7,-0.7 -5,-2.1 -1.3,-1.3 -2.1,-3.1 -2.1,-5 0,-1.9 0.7,-3.7 2.1,-5 1.3,-1.3 3.1,-2.1 5,-2.1 1.9,0 3.7,0.7 5,2.1 1.3,1.3 2.1,3.1 2.1,5 0,2 -0.7,3.9 -2.1,5.4 z"
   id="path3171"
   inkscape:connector-curvature="0"
   style="fill:#86898c;fill-opacity:1" />
		<circle
   cx="397.89999"
   cy="620.29999"
   r="1.1"
   id="circle3173"
   sodipodi:cx="397.89999"
   sodipodi:cy="620.29999"
   sodipodi:rx="1.1"
   sodipodi:ry="1.1"
   style="fill:#86898c;fill-opacity:1"
   d="m 398.99999,620.29999 c 0,0.60751 -0.49248,1.1 -1.1,1.1 -0.60751,0 -1.1,-0.49249 -1.1,-1.1 0,-0.60752 0.49249,-1.1 1.1,-1.1 0.60752,0 1.1,0.49248 1.1,1.1 z" />
		<circle
   cx="401.5"
   cy="620.29999"
   r="1.1"
   id="circle3175"
   sodipodi:cx="401.5"
   sodipodi:cy="620.29999"
   sodipodi:rx="1.1"
   sodipodi:ry="1.1"
   style="fill:#86898c;fill-opacity:1"
   d="m 402.6,620.29999 c 0,0.60751 -0.49249,1.1 -1.1,1.1 -0.60751,0 -1.1,-0.49249 -1.1,-1.1 0,-0.60752 0.49249,-1.1 1.1,-1.1 0.60751,0 1.1,0.49248 1.1,1.1 z" />
		<circle
   cx="394.39999"
   cy="620.29999"
   r="1.1"
   id="circle3177"
   sodipodi:cx="394.39999"
   sodipodi:cy="620.29999"
   sodipodi:rx="1.1"
   sodipodi:ry="1.1"
   style="fill:#86898c;fill-opacity:1"
   d="m 395.49999,620.29999 c 0,0.60751 -0.49248,1.1 -1.1,1.1 -0.60751,0 -1.1,-0.49249 -1.1,-1.1 0,-0.60752 0.49249,-1.1 1.1,-1.1 0.60752,0 1.1,0.49248 1.1,1.1 z" />
	</g>
</g>
</svg>