<?xml version="1.0" encoding="UTF-8" standalone="no"?>
<!-- Generator: Adobe Illustrator 17.1.0, SVG Export Plug-In . SVG Version: 6.00 Build 0)  -->

<svg
   xmlns:dc="http://purl.org/dc/elements/1.1/"
   xmlns:cc="http://creativecommons.org/ns#"
   xmlns:rdf="http://www.w3.org/1999/02/22-rdf-syntax-ns#"
   xmlns:svg="http://www.w3.org/2000/svg"
   xmlns="http://www.w3.org/2000/svg"
   xmlns:sodipodi="http://sodipodi.sourceforge.net/DTD/sodipodi-0.dtd"
   xmlns:inkscape="http://www.inkscape.org/namespaces/inkscape"
   version="1.1"
   id="Layer_1"
   x="0px"
   y="0px"
   viewBox="0 0 19.6 19.6"
   enable-background="new 0 0 792 1224"
   xml:space="preserve"
   inkscape:version="0.91 r13725"
   sodipodi:docname="docs-pricing.svg"
   width="19.6"
   height="19.6"><metadata
     id="metadata3359"><rdf:RDF><cc:Work
         rdf:about=""><dc:format>image/svg+xml</dc:format><dc:type
           rdf:resource="http://purl.org/dc/dcmitype/StillImage" /><dc:title /></cc:Work></rdf:RDF></metadata><defs
     id="defs3357" /><sodipodi:namedview
     pagecolor="#ffffff"
     bordercolor="#666666"
     borderopacity="1"
     objecttolerance="10"
     gridtolerance="10"
     guidetolerance="10"
     inkscape:pageopacity="0"
     inkscape:pageshadow="2"
     inkscape:window-width="686"
     inkscape:window-height="480"
     id="namedview3355"
     showgrid="false"
     fit-margin-top="0"
     fit-margin-left="0"
     fit-margin-right="0"
     fit-margin-bottom="0"
     inkscape:zoom="4.6"
     inkscape:cx="7.9"
     inkscape:cy="9.8"
     inkscape:window-x="0"
     inkscape:window-y="0"
     inkscape:window-maximized="0"
     inkscape:current-layer="Layer_1" /><g
     id="g3351"
     transform="translate(-384.1,-602.2)"
     style="fill:#86898c;fill-opacity:1"><path
       d="m 391.2,614.6 c 0,1.6 1,2.6 2.3,2.9 l 0,-4.5 c -0.2,-0.1 -0.4,-0.1 -0.7,-0.2 -2.2,-0.6 -4.3,-1.4 -4.3,-4.3 0,-3 2.4,-4.5 5,-4.6 l 0,-1.7 1.3,0 0,1.7 c 2.6,0.3 4.7,1.6 4.9,4.6 l -3.1,0 c 0,-1.1 -0.8,-2.1 -1.8,-2.1 l 0,3.8 c 0.3,0.1 0.7,0.2 1.1,0.3 4.3,1.2 4.3,3.6 4.3,5 0,1.2 -1.1,4.3 -5.4,4.5 l 0,1.8 -1.3,0 0,-1.8 c -3.2,-0.2 -5.1,-2 -5.4,-5.4 l 3.1,0 z m 2.3,-8.3 c -1,0 -2,0.6 -2,1.8 0,1 0.6,1.4 2,1.7 l 0,-3.5 z m 1.3,11.2 c 1.1,-0.1 2.3,-0.7 2.3,-2.1 0,-1.1 -0.6,-1.6 -2.3,-2 l 0,4.1 z"
       id="path3353"
       inkscape:connector-curvature="0"
       style="fill:#86898c;fill-opacity:1" /></g></svg>