<?xml version="1.0" encoding="UTF-8" standalone="no"?>
<!-- Generator: Adobe Illustrator 17.1.0, SVG Export Plug-In . SVG Version: 6.00 Build 0)  -->

<svg
   xmlns:dc="http://purl.org/dc/elements/1.1/"
   xmlns:cc="http://creativecommons.org/ns#"
   xmlns:rdf="http://www.w3.org/1999/02/22-rdf-syntax-ns#"
   xmlns:svg="http://www.w3.org/2000/svg"
   xmlns="http://www.w3.org/2000/svg"
   xmlns:sodipodi="http://sodipodi.sourceforge.net/DTD/sodipodi-0.dtd"
   xmlns:inkscape="http://www.inkscape.org/namespaces/inkscape"
   version="1.1"
   id="Layer_1"
   x="0px"
   y="0px"
   viewBox="0 0 20.6 20.6"
   enable-background="new 0 0 792 1224"
   xml:space="preserve"
   inkscape:version="0.48.5 r10040"
   width="100%"
   height="100%"
   sodipodi:docname="docs-articles.svg"><metadata
   id="metadata3001"><rdf:RDF><cc:Work
       rdf:about=""><dc:format>image/svg+xml</dc:format><dc:type
         rdf:resource="http://purl.org/dc/dcmitype/StillImage" /></cc:Work></rdf:RDF></metadata><defs
   id="defs2999" /><sodipodi:namedview
   pagecolor="#ffffff"
   bordercolor="#666666"
   borderopacity="1"
   objecttolerance="10"
   gridtolerance="10"
   guidetolerance="10"
   inkscape:pageopacity="0"
   inkscape:pageshadow="2"
   inkscape:window-width="1123"
   inkscape:window-height="744"
   id="namedview2997"
   showgrid="false"
   fit-margin-top="0"
   fit-margin-left="0"
   fit-margin-right="0"
   fit-margin-bottom="0"
   inkscape:zoom="3.6972904"
   inkscape:cx="14.634838"
   inkscape:cy="-1.2183837"
   inkscape:window-x="0"
   inkscape:window-y="0"
   inkscape:window-maximized="0"
   inkscape:current-layer="Layer_1" />
<path
   d="M 14.3,0 C 12.7,0 11.1,0.8 10.3,1.6 9.4999999,0.8 7.8999999,0 6.2999999,0 H 0 v 19 h 6.2999999 c 1.6,0 3.2,0.8 4.0000001,1.6 0.8,-0.8 2.4,-1.6 4,-1.6 h 6.3 V 0 h -6.3 z m -4,18.6 C 9.1999999,17.9 7.7999999,17.4 6.2999999,17.4 H 1.5 V 1.6 h 4.7999999 c 1.1,0 2.3,0.6 2.8,1.1 L 10.2,3.8 v 14.8 z m 7.9,-5.1 h -5.5 v -0.8 h 5.5 v 0.8 z m 0,-2.4 h -5.5 v -0.8 h 5.5 v 0.8 z m 0,-2.4 H 12.7 V 7.9 h 5.5 v 0.8 z m 0,-2.4 H 12.7 V 5.5 h 5.5 v 0.8 z"
   id="path2995"
   inkscape:connector-curvature="0"
   style="fill:#86898c;fill-opacity:1" />
</svg>