<?xml version="1.0" encoding="utf-8"?>
<!-- Generator: Adobe Illustrator 17.1.0, SVG Export Plug-In . SVG Version: 6.00 Build 0)  -->
<!DOCTYPE svg PUBLIC "-//W3C//DTD SVG 1.1//EN" "http://www.w3.org/Graphics/SVG/1.1/DTD/svg11.dtd">
<svg version="1.1" id="Layer_1" xmlns="http://www.w3.org/2000/svg" xmlns:xlink="http://www.w3.org/1999/xlink" x="0px" y="0px"
	 viewBox="0 0 792 1224" enable-background="new 0 0 792 1224" xml:space="preserve">
<path fill="#414042" d="M408,621.9h-0.8c-0.3-2-2.1-3.5-4.1-3.5c-0.8,0-1.6,0.2-2.2,0.6l-0.1-0.1c-0.9-0.8-2.1-1.3-3.3-1.3
	s-2.4,0.4-3.3,1.3l-0.1,0.1c-0.6-0.4-1.4-0.6-2.2-0.6c-2.1,0-3.8,1.5-4.1,3.5h-0.8v1.4h0.8c0.3,2,2.1,3.5,4.1,3.5
	c2.3,0,4.2-1.9,4.2-4.2c0-1-0.3-1.9-0.9-2.6c0.6-0.6,1.5-0.9,2.3-0.9c0.9,0,1.7,0.3,2.3,0.9l0,0c-0.6,0.7-0.9,1.6-0.9,2.6
	c0,2.3,1.9,4.2,4.2,4.2c2.1,0,3.8-1.5,4.1-3.5h0.8V621.9z M392,625.3c-1.5,0-2.8-1.3-2.8-2.8c0-1.5,1.3-2.8,2.8-2.8s2.8,1.3,2.8,2.8
	C394.8,624.1,393.5,625.3,392,625.3z M403.1,625.3c-1.5,0-2.8-1.3-2.8-2.8c0-1.5,1.3-2.8,2.8-2.8s2.8,1.3,2.8,2.8
	C405.9,624.1,404.7,625.3,403.1,625.3z"/>
</svg>
