<?xml version="1.0" encoding="UTF-8" standalone="no"?>
<!-- Generator: Adobe Illustrator 17.1.0, SVG Export Plug-In . SVG Version: 6.00 Build 0)  -->

<svg
   xmlns:dc="http://purl.org/dc/elements/1.1/"
   xmlns:cc="http://creativecommons.org/ns#"
   xmlns:rdf="http://www.w3.org/1999/02/22-rdf-syntax-ns#"
   xmlns:svg="http://www.w3.org/2000/svg"
   xmlns="http://www.w3.org/2000/svg"
   xmlns:sodipodi="http://sodipodi.sourceforge.net/DTD/sodipodi-0.dtd"
   xmlns:inkscape="http://www.inkscape.org/namespaces/inkscape"
   version="1.1"
   id="Layer_1"
   x="0px"
   y="0px"
   viewBox="0 0 18.4 18.4"
   enable-background="new 0 0 792 1224"
   xml:space="preserve"
   inkscape:version="0.91 r13725"
   sodipodi:docname="docs-faq.svg"
   width="18.4"
   height="18.4"><metadata
     id="metadata9"><rdf:RDF><cc:Work
         rdf:about=""><dc:format>image/svg+xml</dc:format><dc:type
           rdf:resource="http://purl.org/dc/dcmitype/StillImage" /><dc:title></dc:title></cc:Work></rdf:RDF></metadata><defs
     id="defs7" /><sodipodi:namedview
     pagecolor="#ffffff"
     bordercolor="#666666"
     borderopacity="1"
     objecttolerance="10"
     gridtolerance="10"
     guidetolerance="10"
     inkscape:pageopacity="0"
     inkscape:pageshadow="2"
     inkscape:window-width="1920"
     inkscape:window-height="1028"
     id="namedview5"
     showgrid="false"
     fit-margin-top="0"
     fit-margin-left="0"
     fit-margin-right="0"
     fit-margin-bottom="0"
     inkscape:zoom="6.4980192"
     inkscape:cx="9.2"
     inkscape:cy="20.1"
     inkscape:window-x="-8"
     inkscape:window-y="-8"
     inkscape:window-maximized="1"
     inkscape:current-layer="Layer_1" /><path
     d="M 9.2,0 C 4.1,0 0,4.1 0,9.2 c 0,5.1 4.1,9.2 9.2,9.2 5.1,0 9.2,-4.1 9.2,-9.2 C 18.4,4.1 14.3,0 9.2,0 Z m 1.1,13.9 C 10.3,14.5 9.8,15 9.2,15 L 9,15 C 8.4,15 7.9,14.5 7.9,13.9 l 0,-0.2 c 0,-0.6 0.5,-1.1 1.1,-1.1 l 0.2,0 c 0.6,0 1.1,0.5 1.1,1.1 l 0,0.2 z m -0.2,-2.9 0,0.6 -2.1,0 0,-0.7 C 8.2,8.1 10.6,8.4 10.5,6.7 10.5,5.7 10,5.3 9.1,5.3 8.3,5.3 7.8,5.8 7.6,6.5 7.5,7 7,7.3 6.5,7.3 l 0,0 C 5.7,7.3 5.2,6.5 5.4,5.8 5.9,4.4 7.2,3.4 9,3.4 c 3,0 4,1.9 4,3.1 0,3 -2.6,2.6 -2.9,4.5 z"
     id="path3"
     inkscape:connector-curvature="0"
     style="fill:#86898c;fill-opacity:1" /></svg>