<?xml version="1.0" encoding="UTF-8" standalone="no"?>
<!-- Generator: Adobe Illustrator 17.1.0, SVG Export Plug-In . SVG Version: 6.00 Build 0)  -->

<svg
   xmlns:dc="http://purl.org/dc/elements/1.1/"
   xmlns:cc="http://creativecommons.org/ns#"
   xmlns:rdf="http://www.w3.org/1999/02/22-rdf-syntax-ns#"
   xmlns:svg="http://www.w3.org/2000/svg"
   xmlns="http://www.w3.org/2000/svg"
   xmlns:sodipodi="http://sodipodi.sourceforge.net/DTD/sodipodi-0.dtd"
   xmlns:inkscape="http://www.inkscape.org/namespaces/inkscape"
   version="1.1"
   id="Layer_1"
   x="0px"
   y="0px"
   viewBox="0 0 21 21"
   enable-background="new 0 0 792 1224"
   xml:space="preserve"
   inkscape:version="0.48.5 r10040"
   width="100%"
   height="100%"
   sodipodi:docname="docs-reference.svg"><metadata
   id="metadata3201"><rdf:RDF><cc:Work
       rdf:about=""><dc:format>image/svg+xml</dc:format><dc:type
         rdf:resource="http://purl.org/dc/dcmitype/StillImage" /></cc:Work></rdf:RDF></metadata><defs
   id="defs3199" /><sodipodi:namedview
   pagecolor="#ffffff"
   bordercolor="#666666"
   borderopacity="1"
   objecttolerance="10"
   gridtolerance="10"
   guidetolerance="10"
   inkscape:pageopacity="0"
   inkscape:pageshadow="2"
   inkscape:window-width="708"
   inkscape:window-height="480"
   id="namedview3197"
   showgrid="false"
   fit-margin-top="0"
   fit-margin-left="0"
   fit-margin-right="0"
   fit-margin-bottom="0"
   inkscape:zoom="4.3628026"
   inkscape:cx="14.268495"
   inkscape:cy="14.344818"
   inkscape:window-x="30"
   inkscape:window-y="76"
   inkscape:window-maximized="0"
   inkscape:current-layer="Layer_1" />
<path
   d="m 21,10.140528 h -0.8 c -0.3,-2 -2.1,-3.5 -4.1,-3.5 -0.8,0 -1.6,0.2 -2.2,0.6 l -0.1,-0.1 c -0.9,-0.8 -2.1,-1.3 -3.3,-1.3 -1.2,0 -2.4,0.4 -3.3,1.3 l -0.1,0.1 c -0.6,-0.4 -1.4,-0.6 -2.2,-0.6 -2.1,0 -3.8,1.5 -4.1,3.5 H 0 v 1.4 h 0.8 c 0.3,2 2.1,3.5 4.1,3.5 2.3,0 4.2,-1.9 4.2,-4.2 0,-1 -0.3,-1.9 -0.9,-2.6 0.6,-0.6 1.5,-0.9 2.3,-0.9 0.9,0 1.7,0.3 2.3,0.9 l 0,0 c -0.6,0.7 -0.9,1.6 -0.9,2.6 0,2.3 1.9,4.2 4.2,4.2 2.1,0 3.8,-1.5 4.1,-3.5 H 21 v -1.4 z m -16,3.4 c -1.5,0 -2.8,-1.3 -2.8,-2.8 0,-1.5 1.3,-2.8 2.8,-2.8 1.5,0 2.8,1.3 2.8,2.8 0,1.6 -1.3,2.8 -2.8,2.8 z m 11.1,0 c -1.5,0 -2.8,-1.3 -2.8,-2.8 0,-1.5 1.3,-2.8 2.8,-2.8 1.5,0 2.8,1.3 2.8,2.8 0,1.6 -1.2,2.8 -2.8,2.8 z"
   id="path3195"
   inkscape:connector-curvature="0"
   style="fill:#86898c;fill-opacity:1" />
</svg>