<?xml version="1.0" encoding="utf-8"?>
<!-- Generator: Adobe Illustrator 17.1.0, SVG Export Plug-In . SVG Version: 6.00 Build 0)  -->
<!DOCTYPE svg PUBLIC "-//W3C//DTD SVG 1.1//EN" "http://www.w3.org/Graphics/SVG/1.1/DTD/svg11.dtd">
<svg version="1.1" id="Layer_1" xmlns="http://www.w3.org/2000/svg" xmlns:xlink="http://www.w3.org/1999/xlink" x="0px" y="0px"
	 viewBox="0 0 792 1224" enable-background="new 0 0 792 1224" xml:space="preserve">
<g>
	<path fill="#414042" d="M392.5,612.1c0-2,1-3.7,2.6-4.8h-5.2l-2.8,4.8l2.8,4.8h5.3C393.5,615.9,392.5,614.1,392.5,612.1z"/>
	<path fill="#414042" d="M395.4,607.4c-1.6,1-2.7,2.7-2.7,4.7c0,2,1.1,3.8,2.7,4.7L395.4,607.4L395.4,607.4z"/>
	<polygon fill="#414042" points="395.5,607.7 395.5,616.5 398.1,612.1 	"/>
	<polygon fill="#414042" points="395.8,616.6 403.3,612.3 398.2,612.3 	"/>
	<path fill="#414042" d="M398.2,617.6c3,0,5.4-2.4,5.5-5.4l-8.1,4.6l0,0C396.3,617.4,397.2,617.6,398.2,617.6z"/>
	<path fill="#414042" d="M398.2,617.8c-0.9,0-1.8-0.2-2.6-0.6l2.7,4.6h5.5l2.8-4.8l-2.6-4.5C403.7,615.5,401.2,617.8,398.2,617.8z"
		/>
	<path fill="#414042" d="M398.2,606.6c-1,0-1.9,0.3-2.7,0.7l8.2,4.7C403.7,609,401.2,606.6,398.2,606.6z"/>
	<polygon fill="#414042" points="403.4,612 395.7,607.6 398.2,612 	"/>
	<path fill="#414042" d="M403.9,611.8l2.6-4.5l-2.8-4.8h-5.5l-2.6,4.5c0.8-0.4,1.6-0.6,2.5-0.6C401.3,606.4,403.8,608.8,403.9,611.8
		z"/>
</g>
</svg>
