<?xml version="1.0" encoding="utf-8"?>
<!-- Generator: Adobe Illustrator 17.1.0, SVG Export Plug-In . SVG Version: 6.00 Build 0)  -->
<!DOCTYPE svg PUBLIC "-//W3C//DTD SVG 1.1//EN" "http://www.w3.org/Graphics/SVG/1.1/DTD/svg11.dtd">
<svg version="1.1" id="Layer_1" xmlns="http://www.w3.org/2000/svg" xmlns:xlink="http://www.w3.org/1999/xlink" x="0px" y="0px"
	 viewBox="0 0 792 1224" enable-background="new 0 0 792 1224" xml:space="preserve">
<path fill="#414042" d="M396,613.7c-5.1,0-9.2,4.1-9.2,9.2c0,5.1,4.1,9.2,9.2,9.2c5.1,0,9.2-4.1,9.2-9.2
	C405.2,617.8,401.1,613.7,396,613.7z M397.1,627.6c0,0.6-0.5,1.1-1.1,1.1h-0.2c-0.6,0-1.1-0.5-1.1-1.1v-0.2c0-0.6,0.5-1.1,1.1-1.1
	h0.2c0.6,0,1.1,0.5,1.1,1.1V627.6z M396.9,624.7v0.6h-2.1v-0.7c0.2-2.8,2.6-2.5,2.5-4.2c0-1-0.5-1.4-1.4-1.4c-0.8,0-1.3,0.5-1.5,1.2
	c-0.1,0.5-0.6,0.8-1.1,0.8h0c-0.8,0-1.3-0.8-1.1-1.5c0.5-1.4,1.8-2.4,3.6-2.4c3,0,4,1.9,4,3.1C399.8,623.2,397.2,622.8,396.9,624.7z
	"/>
</svg>
