<?xml version="1.0" encoding="utf-8"?>
<!-- Generator: Adobe Illustrator 17.1.0, SVG Export Plug-In . SVG Version: 6.00 Build 0)  -->
<!DOCTYPE svg PUBLIC "-//W3C//DTD SVG 1.1//EN" "http://www.w3.org/Graphics/SVG/1.1/DTD/svg11.dtd">
<svg version="1.1" id="Layer_1" xmlns="http://www.w3.org/2000/svg" xmlns:xlink="http://www.w3.org/1999/xlink" x="0px" y="0px"
	 viewBox="0 0 792 1224" enable-background="new 0 0 792 1224" xml:space="preserve">
<g>
	<g>
		<path fill="#414042" d="M400.3,629.8h-0.1l-0.2-0.1l-4.6-2.4l-4.7,2.4l-0.2,0c-0.2,0-0.3,0-0.5-0.1c-0.2-0.2-0.4-0.5-0.3-0.7
			l0.9-5l-3.7-3.5c-0.2-0.2-0.3-0.5-0.2-0.8c0.1-0.3,0.3-0.5,0.6-0.5l5.1-0.7l2.3-4.5c0.3-0.5,1.1-0.5,1.4,0l2.3,4.5l5.1,0.7
			c0.3,0,0.5,0.2,0.6,0.5c0.1,0.3,0,0.6-0.2,0.8l-3.7,3.5l0.9,5c0.1,0.3-0.1,0.6-0.3,0.7C400.6,629.8,400.5,629.8,400.3,629.8z"/>
	</g>
</g>
</svg>
