<?xml version="1.0" encoding="UTF-8" standalone="no"?>
<!-- Generator: Adobe Illustrator 17.1.0, SVG Export Plug-In . SVG Version: 6.00 Build 0)  -->

<svg
   xmlns:dc="http://purl.org/dc/elements/1.1/"
   xmlns:cc="http://creativecommons.org/ns#"
   xmlns:rdf="http://www.w3.org/1999/02/22-rdf-syntax-ns#"
   xmlns:svg="http://www.w3.org/2000/svg"
   xmlns="http://www.w3.org/2000/svg"
   xmlns:sodipodi="http://sodipodi.sourceforge.net/DTD/sodipodi-0.dtd"
   xmlns:inkscape="http://www.inkscape.org/namespaces/inkscape"
   version="1.1"
   id="Layer_1"
   x="0px"
   y="0px"
   viewBox="0 0 21.4 21.4"
   enable-background="new 0 0 792 1224"
   xml:space="preserve"
   inkscape:version="0.48.5 r10040"
   width="100%"
   height="100%"
   sodipodi:docname="docs-samples.svg"><metadata
   id="metadata3264"><rdf:RDF><cc:Work
       rdf:about=""><dc:format>image/svg+xml</dc:format><dc:type
         rdf:resource="http://purl.org/dc/dcmitype/StillImage" /></cc:Work></rdf:RDF></metadata><defs
   id="defs3262" /><sodipodi:namedview
   pagecolor="#ffffff"
   bordercolor="#666666"
   borderopacity="1"
   objecttolerance="10"
   gridtolerance="10"
   guidetolerance="10"
   inkscape:pageopacity="0"
   inkscape:pageshadow="2"
   inkscape:window-width="708"
   inkscape:window-height="480"
   id="namedview3260"
   showgrid="false"
   fit-margin-top="0"
   fit-margin-left="0"
   fit-margin-right="0"
   fit-margin-bottom="0"
   inkscape:zoom="6.1699346"
   inkscape:cx="9.3271248"
   inkscape:cy="6.5671837"
   inkscape:window-x="39"
   inkscape:window-y="123"
   inkscape:window-maximized="0"
   inkscape:current-layer="Layer_1" />
<g
   id="g3248"
   transform="translate(-386.45847,-611.7)"
   style="fill:#86898c;fill-opacity:1">
	<g
   id="g3250"
   style="fill:#86898c;fill-opacity:1">
		<path
   d="m 397.6,611.7 c -4.3,0 -7.9,3.5 -7.9,7.9 0,4.3 3.5,7.9 7.9,7.9 4.4,0 7.9,-3.5 7.9,-7.9 -0.1,-4.4 -3.6,-7.9 -7.9,-7.9 z m 0,14.2 c -3.5,0 -6.4,-2.9 -6.4,-6.4 0,-3.5 2.9,-6.4 6.4,-6.4 3.5,0 6.4,2.9 6.4,6.4 0,3.5 -2.9,6.4 -6.4,6.4 z"
   id="path3252"
   inkscape:connector-curvature="0"
   style="fill:#86898c;fill-opacity:1" />
		<rect
   x="394.70001"
   y="628.09998"
   width="5.6999998"
   height="2.9000001"
   id="rect3254"
   style="fill:#86898c;fill-opacity:1" />
		<path
   d="m 397.6,633.1 c 0.8,0 1.4,-0.6 1.4,-1.4 h -2.9 c 0.1,0.7 0.7,1.4 1.5,1.4 z"
   id="path3256"
   inkscape:connector-curvature="0"
   style="fill:#86898c;fill-opacity:1" />
		<path
   d="m 397.6,624.5 2.9,-4.3 h -5.7 l 2.8,4.3 z m 0,-1.3 -1.5,-2.3 h 3 l -1.5,2.3 z"
   id="path3258"
   inkscape:connector-curvature="0"
   style="fill:#86898c;fill-opacity:1" />
	</g>
</g>
</svg>