<?xml version="1.0" encoding="UTF-8" standalone="no"?>
<!-- Generator: Adobe Illustrator 17.1.0, SVG Export Plug-In . SVG Version: 6.00 Build 0)  -->

<svg
   xmlns:dc="http://purl.org/dc/elements/1.1/"
   xmlns:cc="http://creativecommons.org/ns#"
   xmlns:rdf="http://www.w3.org/1999/02/22-rdf-syntax-ns#"
   xmlns:svg="http://www.w3.org/2000/svg"
   xmlns="http://www.w3.org/2000/svg"
   xmlns:sodipodi="http://sodipodi.sourceforge.net/DTD/sodipodi-0.dtd"
   xmlns:inkscape="http://www.inkscape.org/namespaces/inkscape"
   version="1.1"
   id="Layer_1"
   x="0px"
   y="0px"
   viewBox="0 0 18.66089 18.660889"
   enable-background="new 0 0 792 1224"
   xml:space="preserve"
   inkscape:version="0.91 r13725"
   sodipodi:docname="docs-whatsnew.svg"
   width="18.660891"
   height="18.660889"><metadata
     id="metadata15"><rdf:RDF><cc:Work
         rdf:about=""><dc:format>image/svg+xml</dc:format><dc:type
           rdf:resource="http://purl.org/dc/dcmitype/StillImage" /><dc:title /></cc:Work></rdf:RDF></metadata><defs
     id="defs13" /><sodipodi:namedview
     pagecolor="#ffffff"
     bordercolor="#666666"
     borderopacity="1"
     objecttolerance="10"
     gridtolerance="10"
     guidetolerance="10"
     inkscape:pageopacity="0"
     inkscape:pageshadow="2"
     inkscape:window-width="1920"
     inkscape:window-height="1028"
     id="namedview11"
     showgrid="false"
     fit-margin-top="0"
     fit-margin-left="0"
     fit-margin-right="0"
     fit-margin-bottom="0"
     inkscape:zoom="5.77"
     inkscape:cx="-17.543359"
     inkscape:cy="20.140991"
     inkscape:window-x="-8"
     inkscape:window-y="-8"
     inkscape:window-maximized="1"
     inkscape:current-layer="Layer_1" /><g
     id="g3"
     transform="translate(-387.9801,-613.4801)"><path
       d="m 398.9,613.6 c -6.4,-1 -11.8,4.4 -10.8,10.8 0.6,3.9 3.8,7 7.6,7.6 6.4,1.1 11.8,-4.4 10.8,-10.8 -0.6,-3.8 -3.7,-7 -7.6,-7.6 z m 0,16.9 c -5.5,1 -10.2,-3.7 -9.2,-9.2 0.6,-3.1 3.1,-5.6 6.1,-6.1 5.5,-1 10.2,3.7 9.2,9.2 -0.5,3 -3,5.5 -6.1,6.1 z"
       id="path5"
       inkscape:connector-curvature="0"
       style="fill:#414042" /><path
       d="m 398.4,623.9 0.3,-5.8 c 0,-0.6 -0.4,-1.1 -1,-1.1 l -0.6,0 c -0.6,0 -1,0.5 -1,1.1 l 0.3,5.8 c 0,0.5 0.5,1 1,1 l 0,0 c 0.5,-0.1 1,-0.5 1,-1 z"
       id="path7"
       inkscape:connector-curvature="0"
       style="fill:#414042" /><path
       d="m 397.4,625.7 c -1,0 -1.7,0.8 -1.5,1.9 0.1,0.7 0.8,1.3 1.5,1.3 l 0,0 c 0.9,0 1.5,-0.7 1.5,-1.6 0,-1 -0.6,-1.6 -1.5,-1.6 z"
       id="path9"
       inkscape:connector-curvature="0"
       style="fill:#414042" /></g><g
     id="g3357"
     transform="translate(-387.9801,-613.4801)"
     style="fill:#86898c;fill-opacity:1"><path
       id="path3359"
       d="m 398.9,613.6 c -6.4,-1 -11.8,4.4 -10.8,10.8 0.6,3.9 3.8,7 7.6,7.6 6.4,1.1 11.8,-4.4 10.8,-10.8 -0.6,-3.8 -3.7,-7 -7.6,-7.6 z m 0,16.9 c -5.5,1 -10.2,-3.7 -9.2,-9.2 0.6,-3.1 3.1,-5.6 6.1,-6.1 5.5,-1 10.2,3.7 9.2,9.2 -0.5,3 -3,5.5 -6.1,6.1 z"
       inkscape:connector-curvature="0"
       style="fill:#86898c;fill-opacity:1" /><path
       id="path3361"
       d="m 398.4,623.9 0.3,-5.8 c 0,-0.6 -0.4,-1.1 -1,-1.1 l -0.6,0 c -0.6,0 -1,0.5 -1,1.1 l 0.3,5.8 c 0,0.5 0.5,1 1,1 l 0,0 c 0.5,-0.1 1,-0.5 1,-1 z"
       inkscape:connector-curvature="0"
       style="fill:#86898c;fill-opacity:1" /><path
       id="path3363"
       d="m 397.4,625.7 c -1,0 -1.7,0.8 -1.5,1.9 0.1,0.7 0.8,1.3 1.5,1.3 l 0,0 c 0.9,0 1.5,-0.7 1.5,-1.6 0,-1 -0.6,-1.6 -1.5,-1.6 z"
       inkscape:connector-curvature="0"
       style="fill:#86898c;fill-opacity:1" /></g></svg>