<?xml version="1.0" encoding="UTF-8" standalone="no"?>
<!-- Generator: Adobe Illustrator 17.1.0, SVG Export Plug-In . SVG Version: 6.00 Build 0)  -->

<svg
   xmlns:dc="http://purl.org/dc/elements/1.1/"
   xmlns:cc="http://creativecommons.org/ns#"
   xmlns:rdf="http://www.w3.org/1999/02/22-rdf-syntax-ns#"
   xmlns:svg="http://www.w3.org/2000/svg"
   xmlns="http://www.w3.org/2000/svg"
   xmlns:sodipodi="http://sodipodi.sourceforge.net/DTD/sodipodi-0.dtd"
   xmlns:inkscape="http://www.inkscape.org/namespaces/inkscape"
   version="1.1"
   id="Layer_1"
   x="0px"
   y="0px"
   viewBox="0 0 17.700001 17.700001"
   enable-background="new 0 0 792 1224"
   xml:space="preserve"
   inkscape:version="0.91 r13725"
   sodipodi:docname="docs-tasks.svg"
   width="17.700001"
   height="17.700001"><metadata
     id="metadata9"><rdf:RDF><cc:Work
         rdf:about=""><dc:format>image/svg+xml</dc:format><dc:type
           rdf:resource="http://purl.org/dc/dcmitype/StillImage" /><dc:title></dc:title></cc:Work></rdf:RDF></metadata><defs
     id="defs7" /><sodipodi:namedview
     pagecolor="#ffffff"
     bordercolor="#666666"
     borderopacity="1"
     objecttolerance="10"
     gridtolerance="10"
     guidetolerance="10"
     inkscape:pageopacity="0"
     inkscape:pageshadow="2"
     inkscape:window-width="1920"
     inkscape:window-height="1028"
     id="namedview5"
     showgrid="false"
     fit-margin-top="0"
     fit-margin-left="0"
     fit-margin-right="0"
     fit-margin-bottom="0"
     inkscape:zoom="8.57"
     inkscape:cx="6.9"
     inkscape:cy="19.5"
     inkscape:window-x="-8"
     inkscape:window-y="-8"
     inkscape:window-maximized="1"
     inkscape:current-layer="Layer_1" /><path
     d="m 14,9.1 -0.8,0.8 1.9,1.9 -3.3,0 0,-6.5 0,-0.6 L 7.1,0 6.5,0 0,0 l 0,17.7 11.8,0 0,-4.7 3.3,0 -1.9,1.9 0.8,0.8 3.4,-3.4 L 14,9.1 Z m -3.4,7.5 -9.4,0 0,-15.3 5.3,0 0,4.1 4.1,0 0,6.5 -4.1,0 0,1.2 4.1,0 0,3.5 z"
     id="path3"
     inkscape:connector-curvature="0"
     style="fill:#86898c;fill-opacity:1" /></svg>