<?xml version="1.0" encoding="utf-8"?>
<!-- Generator: Adobe Illustrator 17.1.0, SVG Export Plug-In . SVG Version: 6.00 Build 0)  -->
<!DOCTYPE svg PUBLIC "-//W3C//DTD SVG 1.1//EN" "http://www.w3.org/Graphics/SVG/1.1/DTD/svg11.dtd">
<svg version="1.1" id="Layer_1" xmlns="http://www.w3.org/2000/svg" xmlns:xlink="http://www.w3.org/1999/xlink" x="0px" y="0px"
	 viewBox="0 0 792 1224" enable-background="new 0 0 792 1224" xml:space="preserve">
<path fill="#414042" d="M401.3,612.2c-1.6,0-3.2,0.8-4,1.6c-0.8-0.8-2.4-1.6-4-1.6H387v19h6.3c1.6,0,3.2,0.8,4,1.6
	c0.8-0.8,2.4-1.6,4-1.6h6.3v-19H401.3z M397.3,630.8c-1.1-0.7-2.5-1.2-4-1.2h-4.8v-15.8h4.8c1.1,0,2.3,0.6,2.8,1.1l1.1,1.1V630.8z
	 M405.2,625.7h-5.5v-0.8h5.5V625.7z M405.2,623.3h-5.5v-0.8h5.5V623.3z M405.2,620.9h-5.5v-0.8h5.5V620.9z M405.2,618.5h-5.5v-0.8
	h5.5V618.5z"/>
</svg>
