<?xml version="1.0" encoding="UTF-8" standalone="no"?>
<!-- Generator: Adobe Illustrator 17.1.0, SVG Export Plug-In . SVG Version: 6.00 Build 0)  -->

<svg
   xmlns:dc="http://purl.org/dc/elements/1.1/"
   xmlns:cc="http://creativecommons.org/ns#"
   xmlns:rdf="http://www.w3.org/1999/02/22-rdf-syntax-ns#"
   xmlns:svg="http://www.w3.org/2000/svg"
   xmlns="http://www.w3.org/2000/svg"
   xmlns:sodipodi="http://sodipodi.sourceforge.net/DTD/sodipodi-0.dtd"
   xmlns:inkscape="http://www.inkscape.org/namespaces/inkscape"
   version="1.1"
   id="Layer_1"
   x="0px"
   y="0px"
   viewBox="0 0 17.47846 17.478461"
   enable-background="new 0 0 792 1224"
   xml:space="preserve"
   inkscape:version="0.91 r13725"
   sodipodi:docname="docs-features.svg"
   width="17.47846"
   height="17.47846"><metadata
     id="metadata3348"><rdf:RDF><cc:Work
         rdf:about=""><dc:format>image/svg+xml</dc:format><dc:type
           rdf:resource="http://purl.org/dc/dcmitype/StillImage" /><dc:title /></cc:Work></rdf:RDF></metadata><defs
     id="defs3346" /><sodipodi:namedview
     pagecolor="#ffffff"
     bordercolor="#666666"
     borderopacity="1"
     objecttolerance="10"
     gridtolerance="10"
     guidetolerance="10"
     inkscape:pageopacity="0"
     inkscape:pageshadow="2"
     inkscape:window-width="1920"
     inkscape:window-height="1028"
     id="namedview3344"
     showgrid="false"
     fit-margin-top="0"
     fit-margin-left="0"
     fit-margin-right="0"
     fit-margin-bottom="0"
     inkscape:zoom="4.96"
     inkscape:cx="9.3392305"
     inkscape:cy="17.8"
     inkscape:window-x="-8"
     inkscape:window-y="-8"
     inkscape:window-maximized="1"
     inkscape:current-layer="Layer_1" /><g
     id="g3338"
     transform="translate(-386.45916,-612.92637)"
     inkscape:transform-center-y="-0.60483873"
     style="fill:#86898c;fill-opacity:1"><g
       id="g3340"
       style="fill:#86898c;fill-opacity:1"><path
         d="m 400.3,629.8 -0.1,0 -0.2,-0.1 -4.6,-2.4 -4.7,2.4 -0.2,0 c -0.2,0 -0.3,0 -0.5,-0.1 -0.2,-0.2 -0.4,-0.5 -0.3,-0.7 l 0.9,-5 -3.7,-3.5 c -0.2,-0.2 -0.3,-0.5 -0.2,-0.8 0.1,-0.3 0.3,-0.5 0.6,-0.5 l 5.1,-0.7 2.3,-4.5 c 0.3,-0.5 1.1,-0.5 1.4,0 l 2.3,4.5 5.1,0.7 c 0.3,0 0.5,0.2 0.6,0.5 0.1,0.3 0,0.6 -0.2,0.8 l -3.7,3.5 0.9,5 c 0.1,0.3 -0.1,0.6 -0.3,0.7 -0.2,0.2 -0.3,0.2 -0.5,0.2 z"
         id="path3342"
         inkscape:connector-curvature="0"
         style="fill:#86898c;fill-opacity:1" /></g></g></svg>