<?xml version="1.0" encoding="UTF-8" standalone="no"?>
<!-- Generator: Adobe Illustrator 17.1.0, SVG Export Plug-In . SVG Version: 6.00 Build 0)  -->

<svg
   xmlns:dc="http://purl.org/dc/elements/1.1/"
   xmlns:cc="http://creativecommons.org/ns#"
   xmlns:rdf="http://www.w3.org/1999/02/22-rdf-syntax-ns#"
   xmlns:svg="http://www.w3.org/2000/svg"
   xmlns="http://www.w3.org/2000/svg"
   xmlns:sodipodi="http://sodipodi.sourceforge.net/DTD/sodipodi-0.dtd"
   xmlns:inkscape="http://www.inkscape.org/namespaces/inkscape"
   version="1.1"
   id="Layer_1"
   x="0px"
   y="0px"
   viewBox="0 0 19.5 19.3"
   enable-background="new 0 0 792 1224"
   xml:space="preserve"
   inkscape:version="0.48.5 r10040"
   width="100%"
   height="100%"
   sodipodi:docname="docs-general.svg"><metadata
   id="metadata3037"><rdf:RDF><cc:Work
       rdf:about=""><dc:format>image/svg+xml</dc:format><dc:type
         rdf:resource="http://purl.org/dc/dcmitype/StillImage" /></cc:Work></rdf:RDF></metadata><defs
   id="defs3035" /><sodipodi:namedview
   pagecolor="#ffffff"
   bordercolor="#666666"
   borderopacity="1"
   objecttolerance="10"
   gridtolerance="10"
   guidetolerance="10"
   inkscape:pageopacity="0"
   inkscape:pageshadow="2"
   inkscape:window-width="1189"
   inkscape:window-height="584"
   id="namedview3033"
   showgrid="false"
   fit-margin-top="0"
   fit-margin-left="0"
   fit-margin-right="0"
   fit-margin-bottom="0"
   inkscape:zoom="6.496732"
   inkscape:cx="-7.8697185"
   inkscape:cy="-0.0091196966"
   inkscape:window-x="0"
   inkscape:window-y="0"
   inkscape:window-maximized="0"
   inkscape:current-layer="Layer_1" />
<g
   id="g3013"
   transform="translate(-387.1,-602.5)"
   style="fill:#86898c;fill-opacity:1">
	<path
   d="m 392.5,612.1 c 0,-2 1,-3.7 2.6,-4.8 h -5.2 l -2.8,4.8 2.8,4.8 h 5.3 c -1.7,-1 -2.7,-2.8 -2.7,-4.8 z"
   id="path3015"
   inkscape:connector-curvature="0"
   style="fill:#86898c;fill-opacity:1" />
	<path
   d="m 395.4,607.4 c -1.6,1 -2.7,2.7 -2.7,4.7 0,2 1.1,3.8 2.7,4.7 l 0,-9.4 0,0 z"
   id="path3017"
   inkscape:connector-curvature="0"
   style="fill:#86898c;fill-opacity:1" />
	<polygon
   points="395.5,607.7 395.5,616.5 398.1,612.1 "
   id="polygon3019"
   style="fill:#86898c;fill-opacity:1" />
	<polygon
   points="395.8,616.6 403.3,612.3 398.2,612.3 "
   id="polygon3021"
   style="fill:#86898c;fill-opacity:1" />
	<path
   d="m 398.2,617.6 c 3,0 5.4,-2.4 5.5,-5.4 l -8.1,4.6 0,0 c 0.7,0.6 1.6,0.8 2.6,0.8 z"
   id="path3023"
   inkscape:connector-curvature="0"
   style="fill:#86898c;fill-opacity:1" />
	<path
   d="m 398.2,617.8 c -0.9,0 -1.8,-0.2 -2.6,-0.6 l 2.7,4.6 h 5.5 l 2.8,-4.8 -2.6,-4.5 c -0.3,3 -2.8,5.3 -5.8,5.3 z"
   id="path3025"
   inkscape:connector-curvature="0"
   style="fill:#86898c;fill-opacity:1" />
	<path
   d="m 398.2,606.6 c -1,0 -1.9,0.3 -2.7,0.7 l 8.2,4.7 c 0,-3 -2.5,-5.4 -5.5,-5.4 z"
   id="path3027"
   inkscape:connector-curvature="0"
   style="fill:#86898c;fill-opacity:1" />
	<polygon
   points="403.4,612 395.7,607.6 398.2,612 "
   id="polygon3029"
   style="fill:#86898c;fill-opacity:1" />
	<path
   d="m 403.9,611.8 2.6,-4.5 -2.8,-4.8 h -5.5 l -2.6,4.5 c 0.8,-0.4 1.6,-0.6 2.5,-0.6 3.2,0 5.7,2.4 5.8,5.4 z"
   id="path3031"
   inkscape:connector-curvature="0"
   style="fill:#86898c;fill-opacity:1" />
</g>
</svg>