<?xml version="1.0" encoding="utf-8"?>
<!-- Generator: Adobe Illustrator 17.1.0, SVG Export Plug-In . SVG Version: 6.00 Build 0)  -->
<!DOCTYPE svg PUBLIC "-//W3C//DTD SVG 1.1//EN" "http://www.w3.org/Graphics/SVG/1.1/DTD/svg11.dtd">
<svg version="1.1" id="Layer_1" xmlns="http://www.w3.org/2000/svg" xmlns:xlink="http://www.w3.org/1999/xlink" x="0px" y="0px"
	 viewBox="0 0 792 1224" enable-background="new 0 0 792 1224" xml:space="preserve">
<g>
	<path fill="#414042" d="M391.2,614.6c0,1.6,1,2.6,2.3,2.9v-4.5c-0.2-0.1-0.4-0.1-0.7-0.2c-2.2-0.6-4.3-1.4-4.3-4.3
		c0-3,2.4-4.5,5-4.6v-1.7h1.3v1.7c2.6,0.3,4.7,1.6,4.9,4.6h-3.1c0-1.1-0.8-2.1-1.8-2.1v3.8c0.3,0.1,0.7,0.2,1.1,0.3
		c4.3,1.2,4.3,3.6,4.3,5c0,1.2-1.1,4.3-5.4,4.5v1.8h-1.3V620c-3.2-0.2-5.1-2-5.4-5.4H391.2z M393.5,606.3c-1,0-2,0.6-2,1.8
		c0,1,0.6,1.4,2,1.7V606.3z M394.8,617.5c1.1-0.1,2.3-0.7,2.3-2.1c0-1.1-0.6-1.6-2.3-2V617.5z"/>
</g>
</svg>
