<?xml version="1.0" encoding="utf-8"?>
<!-- Generator: Adobe Illustrator 17.1.0, SVG Export Plug-In . SVG Version: 6.00 Build 0)  -->
<!DOCTYPE svg PUBLIC "-//W3C//DTD SVG 1.1//EN" "http://www.w3.org/Graphics/SVG/1.1/DTD/svg11.dtd">
<svg version="1.1" id="Layer_1" xmlns="http://www.w3.org/2000/svg" xmlns:xlink="http://www.w3.org/1999/xlink" x="0px" y="0px"
	 viewBox="0 0 792 1224" enable-background="new 0 0 792 1224" xml:space="preserve">
<g>
	<g>
		<path fill="#414042" d="M397.6,611.7c-4.3,0-7.9,3.5-7.9,7.9c0,4.3,3.5,7.9,7.9,7.9s7.9-3.5,7.9-7.9
			C405.4,615.2,401.9,611.7,397.6,611.7z M397.6,625.9c-3.5,0-6.4-2.9-6.4-6.4s2.9-6.4,6.4-6.4s6.4,2.9,6.4,6.4
			S401.1,625.9,397.6,625.9z"/>
		<rect x="394.7" y="628.1" fill="#414042" width="5.7" height="2.9"/>
		<path fill="#414042" d="M397.6,633.1c0.8,0,1.4-0.6,1.4-1.4h-2.9C396.2,632.4,396.8,633.1,397.6,633.1z"/>
		<path fill="#414042" d="M397.6,624.5l2.9-4.3h-5.7L397.6,624.5z M397.6,623.2l-1.5-2.3h3L397.6,623.2z"/>
	</g>
</g>
</svg>
