<?xml version="1.0" encoding="UTF-8" standalone="no"?>
<!-- Generator: Adobe Illustrator 17.1.0, SVG Export Plug-In . SVG Version: 6.00 Build 0)  -->

<svg
   xmlns:dc="http://purl.org/dc/elements/1.1/"
   xmlns:cc="http://creativecommons.org/ns#"
   xmlns:rdf="http://www.w3.org/1999/02/22-rdf-syntax-ns#"
   xmlns:svg="http://www.w3.org/2000/svg"
   xmlns="http://www.w3.org/2000/svg"
   xmlns:sodipodi="http://sodipodi.sourceforge.net/DTD/sodipodi-0.dtd"
   xmlns:inkscape="http://www.inkscape.org/namespaces/inkscape"
   version="1.1"
   id="Layer_1"
   x="0px"
   y="0px"
   viewBox="0 0 18.700001 18.700001"
   enable-background="new 0 0 792 1224"
   xml:space="preserve"
   inkscape:version="0.91 r13725"
   sodipodi:docname="docs-tasks.svg"
   width="18.700001"
   height="18.700001"><metadata
     id="metadata19"><rdf:RDF><cc:Work
         rdf:about=""><dc:format>image/svg+xml</dc:format><dc:type
           rdf:resource="http://purl.org/dc/dcmitype/StillImage" /><dc:title></dc:title></cc:Work></rdf:RDF></metadata><defs
     id="defs17" /><sodipodi:namedview
     pagecolor="#ffffff"
     bordercolor="#666666"
     borderopacity="1"
     objecttolerance="10"
     gridtolerance="10"
     guidetolerance="10"
     inkscape:pageopacity="0"
     inkscape:pageshadow="2"
     inkscape:window-width="686"
     inkscape:window-height="480"
     id="namedview15"
     showgrid="false"
     fit-margin-top="0"
     fit-margin-left="0"
     fit-margin-right="0"
     fit-margin-bottom="0"
     inkscape:zoom="4.9375"
     inkscape:cx="6.9"
     inkscape:cy="19.7"
     inkscape:window-x="0"
     inkscape:window-y="0"
     inkscape:window-maximized="0"
     inkscape:current-layer="Layer_1" /><g
     id="g3"
     transform="translate(-387.30253,-613)"
     style="fill:#86898c;fill-opacity:1"><path
       d="m 398.6,613 -3.5,0 c -0.3,0 -0.6,0.1 -0.8,0.3 l -1.2,1.2 c -0.2,0.2 -0.3,0.5 -0.3,0.8 l 0,0 0,1.2 1.2,0 5.8,0 1.2,0 0,-1.2 0,0 c 0,-0.3 -0.1,-0.6 -0.3,-0.8 l -1.2,-1.2 c -0.3,-0.2 -0.6,-0.3 -0.9,-0.3 l 0,0 z"
       id="path5"
       inkscape:connector-curvature="0"
       style="fill:#86898c;fill-opacity:1" /><path
       d="m 403.3,614.1 -3,0 0.3,0.3 c 0.2,0.2 0.3,0.5 0.3,0.8 l 0,0 2.3,0 0,15.2 -12.8,0 0,-15.2 2.3,0 0,0 c 0,-0.3 0.1,-0.6 0.3,-0.8 l 0.3,-0.3 -3,0 c -0.6,0 -1.2,0.5 -1.2,1.2 l 0,15.2 c 0,0.6 0.5,1.2 1.2,1.2 l 12.8,0 c 0.6,0 1.2,-0.5 1.2,-1.2 l 0,-15.2 c 0.2,-0.7 -0.4,-1.2 -1,-1.2 z"
       id="path7"
       inkscape:connector-curvature="0"
       style="fill:#86898c;fill-opacity:1" /><path
       d="m 401,619.4 c 0,0.3 -0.3,0.6 -0.6,0.6 l -7,0 c -0.3,0 -0.6,-0.3 -0.6,-0.6 l 0,0 c 0,-0.3 0.3,-0.6 0.6,-0.6 l 7,0 c 0.3,0 0.6,0.2 0.6,0.6 l 0,0 z"
       id="path9"
       inkscape:connector-curvature="0"
       style="fill:#86898c;fill-opacity:1" /><path
       d="m 401,622.9 c 0,0.3 -0.3,0.6 -0.6,0.6 l -7,0 c -0.3,0 -0.6,-0.3 -0.6,-0.6 l 0,0 c 0,-0.3 0.3,-0.6 0.6,-0.6 l 7,0 c 0.3,0 0.6,0.2 0.6,0.6 l 0,0 z"
       id="path11"
       inkscape:connector-curvature="0"
       style="fill:#86898c;fill-opacity:1" /><path
       d="m 401,626.4 c 0,0.3 -0.3,0.6 -0.6,0.6 l -7,0 c -0.3,0 -0.6,-0.3 -0.6,-0.6 l 0,0 c 0,-0.3 0.3,-0.6 0.6,-0.6 l 7,0 c 0.3,0 0.6,0.2 0.6,0.6 l 0,0 z"
       id="path13"
       inkscape:connector-curvature="0"
       style="fill:#86898c;fill-opacity:1" /></g></svg>